<mxfile host="app.diagrams.net" modified="2020-10-30T03:23:18.431Z" agent="5.0 (Macintosh; Intel Mac OS X 10_15_7) AppleWebKit/537.36 (KHTML, like Gecko) Chrome/86.0.4240.111 Safari/537.36" etag="a1zR0mvSuHRU4YfltmLn" version="13.8.7" type="github">
  <diagram id="BXAD8NZw7EORhFKoVIw5" name="Page-1">
    <mxGraphModel dx="1426" dy="722" grid="1" gridSize="10" guides="1" tooltips="1" connect="1" arrows="1" fold="1" page="1" pageScale="1" pageWidth="1200" pageHeight="1600" math="0" shadow="0">
      <root>
        <mxCell id="0" />
        <mxCell id="1" parent="0" />
      </root>
    </mxGraphModel>
  </diagram>
</mxfile>
